<svg xmlns="http://www.w3.org/2000/svg" width="130" height="28" fill="none"><g clip-path="url(#a)"><path fill="#76ED44" d="M19.602 12.77H7.122l6.36-6.36a1.16 1.16 0 0 0 0-1.68 1.16 1.16 0 0 0-1.68 0l-6.72 6.72a3.622 3.622 0 0 0-1.02 2.22c0 .12-.06.18-.06.3a.76.76 0 0 0 .06.36 3.776 3.776 0 0 0 1.02 2.22l6.72 6.72a1.188 1.188 0 0 0 1.68-1.68l-6.3-6.42h12.42a1.2 1.2 0 0 0 0-2.4Z"/><path stroke="#76ED44" stroke-linecap="round" stroke-linejoin="round" stroke-width="2" d="m47.595 22-2-2"/><path stroke="#76ED44" stroke-width="2" d="M38.095 19a6.5 6.5 0 1 0 0-13 6.5 6.5 0 0 0 0 13Z"/><path fill="#76ED44" d="M76.846 5.496c0-1.185-1.225-2.067-3.743-2.697-2.062-.515-4.79-.799-7.68-.799-2.89 0-5.618.284-7.68.8C55.224 3.428 54 4.31 54 5.495c0 .439.168.836.507 1.194l7.774 9.43v9.025a.854.854 0 0 0 1.234.766l4.565-2.263a.855.855 0 0 0 .475-.764l.009-6.764 7.775-9.43c.339-.358.507-.755.507-1.194Zm-18.304-1.13c1.883-.424 4.326-.657 6.88-.657 2.555 0 4.999.233 6.881.657 2.08.468 2.664.97 2.803 1.13-.14.16-.724.663-2.803 1.131-1.882.424-4.326.657-6.88.657-2.554 0-4.998-.233-6.88-.657-2.08-.468-2.664-.97-2.804-1.13.14-.16.724-.663 2.803-1.131Zm8.509 10.904a.855.855 0 0 0-.195.542l-.009 6.54-2.857 1.417v-7.956a.854.854 0 0 0-.195-.543l-5.78-7.012c2.026.474 4.642.735 7.408.735s5.381-.26 7.408-.735l-5.78 7.012ZM103.964 11.111a.75.75 0 0 0-.597-.528l-7.396-1.127-3.308-7.024A.737.737 0 0 0 92 2a.738.738 0 0 0-.663.432l-3.308 7.024-7.395 1.127a.75.75 0 0 0-.598.528.802.802 0 0 0 .187.795l5.352 5.467-1.263 7.72a.793.793 0 0 0 .294.759c.228.173.53.196.78.059L92 22.266l6.615 3.645c.108.06.227.089.344.089h.002c.409 0 .74-.347.74-.775a.818.818 0 0 0-.022-.189l-1.254-7.663 5.352-5.467a.803.803 0 0 0 .187-.795Zm-6.85 5.437a.799.799 0 0 0-.213.686l1.076 6.573-5.633-3.103a.71.71 0 0 0-.688 0l-5.632 3.103 1.075-6.573a.799.799 0 0 0-.212-.686l-4.557-4.656 6.297-.96a.743.743 0 0 0 .557-.424l2.817-5.98 2.816 5.98a.744.744 0 0 0 .556.425l6.298.959-4.557 4.656Z"/><mask id="b" width="24" height="24" x="106" y="2" maskUnits="userSpaceOnUse" style="mask-type:luminance"><path fill="#fff" d="M130 2h-24v24h24V2Z"/></mask><g mask="url(#b)"><path fill="#76ED44" d="M129.947 11.214a1.092 1.092 0 0 0-.881-.743l-6.97-1.013-3.118-6.316a1.09 1.09 0 0 0-1.956 0l-3.117 6.316-6.971 1.013a1.092 1.092 0 0 0-.604 1.861l5.043 4.916-1.191 6.943a1.091 1.091 0 0 0 1.583 1.15L118 22.063l6.234 3.278a1.091 1.091 0 0 0 1.573-1.21l-1.18-6.883 5.043-4.916a1.09 1.09 0 0 0 .277-1.118Z"/></g></g><defs><clipPath id="a"><path fill="#fff" d="M0 0h130v28H0z"/></clipPath></defs></svg>